# xmcd
#
# Track frame offsets:
#	150
#	11264
#	27022
#	37768
#	50797
#	62963
#	76073
#	88949
#	103680
#	119038
#	130362
#	143892
#	164432
#	178652
#
# Disc length: 2518
#
# Revision: 5
# Processed by: cddbd v1.5.1PL0 Copyright (c) Steve Scherf et al.
# Submitted via: CDex 1.40Release
# Normalized: r3:DSETVAR1,TDELIM( - ),TSWAP
#
DISCID=bc09d40e
DTITLE=Various Artist - le regine della musica
DYEAR=1900
DGENRE=
TTITLE0=aretha franklin - respect
TTITLE1=ike e tina turner - river deep, montain high
TTITLE2=etta james - tell mama
TTITLE3=irma thomas - time is on my side
TTITLE4=martha and the vandellas - dancin' in the street
TTITLE5=diana ross e the supremes - stop in the name of love
TTITLE6=carla thomas - knock on wood
TTITLE7=aretha franklin - try a little tenderness
TTITLE8=etta james - you can leave your hat on
TTITLE9=la vern baker - see see rider
TTITLE10=ruth brown - teardrops from my eyes
TTITLE11=the staple singers - the weight
TTITLE12=shirley bassey - spinning wheel
TTITLE13=aretha franklin - think
EXTD=
EXTT0=
EXTT1=
EXTT2=
EXTT3=
EXTT4=
EXTT5=
EXTT6=
EXTT7=
EXTT8=
EXTT9=
EXTT10=
EXTT11=
EXTT12=
EXTT13=
PLAYORDER=
